<svg width="44" height="44" viewBox="0 0 44 44" fill="none" xmlns="http://www.w3.org/2000/svg">
<path opacity="0.6" d="M0 6C0 2.68629 2.68629 0 6 0H38C41.3137 0 44 2.68629 44 6V38C44 41.3137 41.3137 44 38 44H6C2.68629 44 0 41.3137 0 38V6Z" fill="#1DC9EC"/>
<path fill-rule="evenodd" clip-rule="evenodd" d="M22.6993 14.9342V16.6295L26.4992 17.5305V15.8229L22.6993 14.9342ZM20.9884 17.3058V13.8555V13.8555C20.9884 13.634 21.0725 13.4322 21.2106 13.2803C21.2252 13.2642 21.2404 13.2487 21.2562 13.2338C21.4094 13.0889 21.6163 13 21.8439 13C21.9176 13 21.9891 13.0093 22.0573 13.0268L27.5495 14.3114C27.9364 14.402 28.2101 14.747 28.2101 15.1444V18.6126C28.2101 18.8742 28.0904 19.1215 27.8852 19.2837C27.68 19.446 27.4118 19.5054 27.1572 19.445L22.6993 18.3879V24.5442L22.6994 24.5491V27.0984C22.6994 28.7615 21.3511 30.1097 19.6881 30.1097H18.0113C16.3482 30.1097 15 28.7615 15 27.0984V26.7049C15 25.0418 16.3482 23.6936 18.0113 23.6936H20.9884V17.3058Z" fill="white"/>
</svg>
