<svg width="20" height="20" viewBox="0 0 20 20" fill="none" xmlns="http://www.w3.org/2000/svg">
<path d="M6.66675 7.5V10.8333" stroke="black" stroke-width="1.25" stroke-linecap="round"/>
<path d="M13.3333 7.5V10.8333" stroke="black" stroke-width="1.25" stroke-linecap="round"/>
<path d="M10 5.8335V12.5002" stroke="black" stroke-width="1.25" stroke-linecap="round"/>
<path d="M2.5 5.00016C2.5 4.07969 3.24619 3.3335 4.16667 3.3335H15.8333C16.7538 3.3335 17.5 4.07969 17.5 5.00016V13.3333C17.5 14.2538 16.7538 15 15.8333 15H9.93521C9.22563 15 8.61925 15.466 8.25521 16.075C7.86439 16.7289 7.361 17.2444 6.70963 17.8103C6.26168 18.1995 6.10608 18.0757 6.25 17.5V17.5C6.54549 16.318 5.79321 15.5552 5.33065 15.2114C5.12298 15.0571 4.8653 15 4.60655 15H4.16667C3.24619 15 2.5 14.2538 2.5 13.3333V5.00016Z" stroke="black" stroke-width="1.25"/>
</svg>
