<svg width="14" height="18" viewBox="0 0 14 18" fill="none" xmlns="http://www.w3.org/2000/svg">
<path fill-rule="evenodd" clip-rule="evenodd" d="M13.0724 0.428467C13.4668 0.428467 13.7866 0.748263 13.7866 1.14275C13.7866 1.51931 13.4953 1.82781 13.1257 1.85508L13.0724 1.85704H0.928641C0.534152 1.85704 0.214355 1.53724 0.214355 1.14275C0.214355 0.766195 0.50574 0.457694 0.875333 0.430426L0.928641 0.428467H13.0724ZM12.8623 8.49492C13.1413 8.77387 13.1413 9.22613 12.8623 9.50508C12.598 9.76934 12.1782 9.78325 11.8976 9.5468L11.8522 9.50508L7.71472 5.36774V16.858C7.71472 17.2525 7.39493 17.5723 7.00044 17.5723C6.62388 17.5723 6.31538 17.2809 6.28811 16.9113L6.28615 16.858V5.36708L2.14878 9.50432C1.88451 9.76858 1.4647 9.78249 1.18406 9.54605L1.13863 9.50432C0.87436 9.24006 0.860452 8.82024 1.0969 8.5396L1.13863 8.49417L6.49501 3.13778C6.75928 2.87352 7.17909 2.85961 7.45973 3.09606L7.50516 3.13778L12.8623 8.49492Z" fill="black"/>
</svg>
