<svg width="20" height="20" viewBox="0 0 20 20" fill="none" xmlns="http://www.w3.org/2000/svg">
<path d="M17.1428 10.0393C16.9534 10.0393 16.7717 10.1146 16.6377 10.2486C16.5038 10.3825 16.4285 10.5642 16.4285 10.7536V16.4322H3.57139V3.57506H9.24996C9.4394 3.57506 9.62109 3.4998 9.75504 3.36585C9.889 3.23189 9.96425 3.05021 9.96425 2.86077C9.96425 2.67133 9.889 2.48965 9.75504 2.35569C9.62109 2.22174 9.4394 2.14648 9.24996 2.14648H2.85711C2.66767 2.14648 2.48599 2.22174 2.35203 2.35569C2.21808 2.48965 2.14282 2.67133 2.14282 2.86077V17.1465C2.14282 17.3359 2.21808 17.5176 2.35203 17.6516C2.48599 17.7855 2.66767 17.8608 2.85711 17.8608H17.1428C17.3323 17.8608 17.5139 17.7855 17.6479 17.6516C17.7819 17.5176 17.8571 17.3359 17.8571 17.1465V10.7536C17.8571 10.5642 17.7819 10.3825 17.6479 10.2486C17.5139 10.1146 17.3323 10.0393 17.1428 10.0393Z" fill="black"/>
<path d="M11.4965 9.17847C11.6856 9.17767 11.8667 9.10189 12 8.96776L16.1393 4.83918V7.2749C16.1393 7.46434 16.2146 7.64602 16.3485 7.77998C16.4825 7.91393 16.6642 7.98919 16.8536 7.98919C17.0431 7.98919 17.2247 7.91393 17.3587 7.77998C17.4926 7.64602 17.5679 7.46434 17.5679 7.2749V3.11419C17.5679 2.92475 17.4926 2.74307 17.3587 2.60911C17.2247 2.47516 17.0431 2.3999 16.8536 2.3999H12.6858C12.4963 2.3999 12.3146 2.47516 12.1807 2.60911C12.0467 2.74307 11.9715 2.92475 11.9715 3.11419C11.9715 3.30363 12.0467 3.48531 12.1807 3.61927C12.3146 3.75322 12.4963 3.82847 12.6858 3.82847H15.1179L10.9929 7.94276C10.8924 8.04245 10.8238 8.16976 10.7957 8.30853C10.7677 8.4473 10.7816 8.59127 10.8355 8.72215C10.8895 8.85304 10.9811 8.96493 11.0988 9.04364C11.2165 9.12234 11.3549 9.1643 11.4965 9.16419V9.17847Z" fill="black"/>
</svg>
