<svg width="20" height="20" viewBox="0 0 20 20" fill="none" xmlns="http://www.w3.org/2000/svg">
<path d="M10 13.3335V8.3335M10 8.3335L7.5 10.0002M10 8.3335L12.5 10.0002M2.5 5.00016V14.0002C2.5 14.9336 2.5 15.4 2.68166 15.7565C2.84144 16.0701 3.09623 16.3256 3.40983 16.4854C3.766 16.6668 4.23249 16.6668 5.16409 16.6668H14.8359C15.7675 16.6668 16.2333 16.6668 16.5895 16.4854C16.9031 16.3256 17.1587 16.0703 17.3185 15.7567C17.5002 15.4001 17.5002 14.9334 17.5002 14L17.5002 7.66664C17.5002 6.73322 17.5002 6.26651 17.3185 5.90999C17.1587 5.59639 16.9033 5.34161 16.5897 5.18182C16.2331 5.00016 15.7668 5.00016 14.8333 5.00016H10M2.5 5.00016H10M2.5 5.00016C2.5 4.07969 3.24619 3.3335 4.16667 3.3335H7.22876C7.63642 3.3335 7.84072 3.3335 8.03253 3.37955C8.20259 3.42037 8.36488 3.48788 8.514 3.57926C8.68214 3.6823 8.82651 3.82668 9.11458 4.11475L10 5.00016" stroke="black" stroke-width="1.5" stroke-linecap="round" stroke-linejoin="round"/>
</svg>
