<svg width="44" height="31" viewBox="0 0 44 31" fill="none" xmlns="http://www.w3.org/2000/svg">
<path d="M16.3047 0.216463C16.1051 0.0756142 15.8668 0 15.6225 0H3.24176C2.55595 0 2 0.563576 2 1.25878V28.3226C2 29.0178 2.55595 29.5814 3.24176 29.5814H40.5082C41.194 29.5814 41.75 29.0178 41.75 28.3226V3.57298C41.75 2.91948 41.2202 2.38972 40.5667 2.38972H20.1355C19.6469 2.38972 19.1703 2.23849 18.7711 1.9568L16.3047 0.216463Z" fill="url(#paint0_linear_24_1714)"/>
<g filter="url(#filter0_d_24_1714)">
<rect x="4.77319" y="4.62207" width="34.2035" height="6.47093" fill="#FEFEFF"/>
</g>
<g filter="url(#filter1_d_24_1714)">
<path d="M2 7.85762C2 6.83654 2.82775 6.00879 3.84884 6.00879H39.9012C40.9222 6.00879 41.75 6.83654 41.75 7.85763V28.657C41.75 29.1676 41.3361 29.5815 40.8256 29.5815H2.92442C2.41388 29.5815 2 29.1676 2 28.657V7.85762Z" fill="url(#paint1_linear_24_1714)"/>
</g>
<defs>
<filter id="filter0_d_24_1714" x="3.58994" y="3.73463" width="36.5699" height="8.83721" filterUnits="userSpaceOnUse" color-interpolation-filters="sRGB">
<feFlood flood-opacity="0" result="BackgroundImageFix"/>
<feColorMatrix in="SourceAlpha" type="matrix" values="0 0 0 0 0 0 0 0 0 0 0 0 0 0 0 0 0 0 127 0" result="hardAlpha"/>
<feOffset dy="0.295814"/>
<feGaussianBlur stdDeviation="0.591628"/>
<feComposite in2="hardAlpha" operator="out"/>
<feColorMatrix type="matrix" values="0 0 0 0 0 0 0 0 0 0 0 0 0 0 0 0 0 0 0.05 0"/>
<feBlend mode="normal" in2="BackgroundImageFix" result="effect1_dropShadow_24_1714"/>
<feBlend mode="normal" in="SourceGraphic" in2="effect1_dropShadow_24_1714" result="shape"/>
</filter>
<filter id="filter1_d_24_1714" x="0.151163" y="3.23553" width="43.4477" height="27.2704" filterUnits="userSpaceOnUse" color-interpolation-filters="sRGB">
<feFlood flood-opacity="0" result="BackgroundImageFix"/>
<feColorMatrix in="SourceAlpha" type="matrix" values="0 0 0 0 0 0 0 0 0 0 0 0 0 0 0 0 0 0 127 0" result="hardAlpha"/>
<feOffset dy="-0.924419"/>
<feGaussianBlur stdDeviation="0.924419"/>
<feComposite in2="hardAlpha" operator="out"/>
<feColorMatrix type="matrix" values="0 0 0 0 0.25535 0 0 0 0 0.290588 0 0 0 0 0.434603 0 0 0 0.08 0"/>
<feBlend mode="normal" in2="BackgroundImageFix" result="effect1_dropShadow_24_1714"/>
<feBlend mode="normal" in="SourceGraphic" in2="effect1_dropShadow_24_1714" result="shape"/>
</filter>
<linearGradient id="paint0_linear_24_1714" x1="-16.3159" y1="47.9911" x2="20.1056" y2="-19.0676" gradientUnits="userSpaceOnUse">
<stop stop-color="#6684FF"/>
<stop offset="1" stop-color="#CCD6FF"/>
</linearGradient>
<linearGradient id="paint1_linear_24_1714" x1="-16.3159" y1="44.2517" x2="6.71764" y2="-7.32671" gradientUnits="userSpaceOnUse">
<stop stop-color="#6684FF"/>
<stop offset="1" stop-color="#CCD6FF"/>
</linearGradient>
</defs>
</svg>
