<svg width="19" height="18" viewBox="0 0 19 18" fill="none" xmlns="http://www.w3.org/2000/svg">
<path d="M14.9524 4V2.21429C14.9524 1.8198 14.6326 1.5 14.2381 1.5H2.21429C1.8198 1.5 1.5 1.8198 1.5 2.21429V15.7857C1.5 16.1802 1.8198 16.5 2.21429 16.5H14.2381C14.6326 16.5 14.9524 16.1802 14.9524 15.7857V14" stroke="black" stroke-width="1.42857" stroke-linecap="round"/>
<path d="M5.42852 1.85714C5.42852 1.46265 5.10872 1.14286 4.71423 1.14286C4.31974 1.14286 3.99995 1.46265 3.99995 1.85714L5.42852 1.85714ZM3.99995 1.85714L3.99995 16.5L5.42852 16.5L5.42852 1.85714L3.99995 1.85714Z" fill="black"/>
<path d="M17.2142 9.53557C17.6087 9.53557 17.9285 9.21578 17.9285 8.82129C17.9285 8.4268 17.6087 8.107 17.2142 8.107V9.53557ZM17.2142 8.107H8.46423V9.53557H17.2142V8.107Z" fill="black"/>
<path d="M14.2976 6.32129L17.386 8.8009C17.4529 8.8546 17.4577 8.95471 17.3963 9.01459L14.2976 12.0356" stroke="black" stroke-width="1.42857" stroke-linecap="round"/>
</svg>
