<svg width="14" height="4" viewBox="0 0 14 4" fill="none" xmlns="http://www.w3.org/2000/svg">
<path fill-rule="evenodd" clip-rule="evenodd" d="M10.9286 1.99986C10.9286 2.78884 11.5682 3.42843 12.3572 3.42843C13.1462 3.42843 13.7858 2.78884 13.7858 1.99986C13.7858 1.21088 13.1462 0.571289 12.3572 0.571289C11.5682 0.571289 10.9286 1.21088 10.9286 1.99986ZM7 3.42857C6.21102 3.42857 5.57143 2.78898 5.57143 2C5.57143 1.21102 6.21102 0.571429 7 0.571429C7.78898 0.571429 8.42857 1.21102 8.42857 2C8.42857 2.78898 7.78898 3.42857 7 3.42857ZM1.64286 3.42857C0.853879 3.42857 0.214285 2.78898 0.214285 2C0.214285 1.21102 0.853879 0.571429 1.64286 0.571429C2.43184 0.571429 3.07143 1.21102 3.07143 2C3.07143 2.78898 2.43184 3.42857 1.64286 3.42857Z" fill="black"/>
</svg>
