<svg width="16" height="16" viewBox="0 0 16 16" fill="none" xmlns="http://www.w3.org/2000/svg">
<path fill-rule="evenodd" clip-rule="evenodd" d="M7.28378 0.5C3.5372 0.5 0.5 3.53519 0.5 7.2793C0.5 11.0234 3.5372 14.0586 7.28378 14.0586C8.89708 14.0586 10.3788 13.4958 11.5432 12.556L14.6382 15.6481L14.6836 15.6898C14.9642 15.9261 15.3839 15.9122 15.6481 15.6481C15.927 15.3694 15.927 14.9176 15.6481 14.6389L12.5543 11.5479C13.5005 10.3825 14.0676 8.89705 14.0676 7.2793C14.0676 3.53519 11.0304 0.5 7.28378 0.5ZM7.28378 1.9273C10.2416 1.9273 12.6393 4.32347 12.6393 7.2793C12.6393 10.2351 10.2416 12.6313 7.28378 12.6313C4.326 12.6313 1.92824 10.2351 1.92824 7.2793C1.92824 4.32347 4.326 1.9273 7.28378 1.9273Z" fill="black"/>
</svg>
