<svg width="61" height="53" viewBox="0 0 61 53" fill="none" xmlns="http://www.w3.org/2000/svg">
<g filter="url(#filter0_i_24_776)">
<path fill-rule="evenodd" clip-rule="evenodd" d="M3.01639 0.5C1.35049 0.5 0 1.85048 0 3.51639V9.54918L7.00403e-06 34.4344C7.00403e-06 36.9333 2.02573 38.959 4.5246 38.959H39.9672C42.4661 38.959 44.4918 36.9333 44.4918 34.4344V8.79508C44.4918 6.29622 42.4661 4.27049 39.9672 4.27049H15.8361L12.9491 1.38348C12.3834 0.817798 11.6161 0.5 10.8161 0.5H3.01639Z" fill="url(#paint0_linear_24_776)"/>
</g>
<g filter="url(#filter1_di_24_776)">
<path fill-rule="evenodd" clip-rule="evenodd" d="M23.4894 13.4859V15.1812L27.2892 16.0823V14.3747L23.4894 13.4859ZM21.7784 15.8576V12.4072V12.4072C21.7784 12.1858 21.8626 11.984 22.0007 11.832C22.0152 11.816 22.0304 11.8005 22.0462 11.7856C22.1995 11.6406 22.4063 11.5518 22.6339 11.5518C22.7076 11.5518 22.7791 11.5611 22.8474 11.5786L28.3395 12.8632C28.7265 12.9537 29.0002 13.2988 29.0002 13.6962V17.1644C29.0002 17.426 28.8805 17.6732 28.6752 17.8355C28.47 17.9977 28.2018 18.0571 27.9473 17.9968L23.4894 16.9397V23.096L23.4894 23.1008V25.6502C23.4894 27.3132 22.1412 28.6615 20.4781 28.6615H18.8013C17.1383 28.6615 15.79 27.3132 15.79 25.6502V25.2566C15.79 23.5935 17.1383 22.2453 18.8013 22.2453H21.7784V15.8576Z" fill="white" fill-opacity="0.9" shape-rendering="crispEdges"/>
</g>
<g filter="url(#filter2_bdi_24_776)">
<circle cx="45.5" cy="34.5" r="11.5" fill="white" fill-opacity="0.5" shape-rendering="crispEdges"/>
</g>
<g filter="url(#filter3_bdi_24_776)">
<circle cx="45.5" cy="34.5" r="11.5" fill="url(#paint1_linear_24_776)" fill-opacity="0.5" shape-rendering="crispEdges"/>
</g>
<g filter="url(#filter4_bdii_24_776)">
<path fill-rule="evenodd" clip-rule="evenodd" d="M51.1407 36.1178C51.6644 35.5941 51.6644 34.7451 51.1407 34.2214L46.4474 28.8576L46.3621 28.7793C45.8352 28.3354 45.0471 28.3615 44.551 28.8576L39.8591 34.22L39.7807 34.3053C39.3368 34.8321 39.363 35.6203 39.8591 36.1164L39.9444 36.1947C40.4712 36.6386 41.2593 36.6125 41.7555 36.1164L44.159 33.2825V39.1941L44.1627 39.2942C44.2139 39.988 44.7931 40.535 45.5 40.535C46.2406 40.535 46.841 39.9347 46.841 39.1941V33.2843L49.2443 36.1178L49.3296 36.1961C49.8565 36.64 50.6446 36.6139 51.1407 36.1178Z" fill="#34C6E3"/>
</g>
<defs>
<filter id="filter0_i_24_776" x="0" y="0.5" width="44.4917" height="41.4754" filterUnits="userSpaceOnUse" color-interpolation-filters="sRGB">
<feFlood flood-opacity="0" result="BackgroundImageFix"/>
<feBlend mode="normal" in="SourceGraphic" in2="BackgroundImageFix" result="shape"/>
<feColorMatrix in="SourceAlpha" type="matrix" values="0 0 0 0 0 0 0 0 0 0 0 0 0 0 0 0 0 0 127 0" result="hardAlpha"/>
<feOffset dy="3.01639"/>
<feGaussianBlur stdDeviation="1.5082"/>
<feComposite in2="hardAlpha" operator="arithmetic" k2="-1" k3="1"/>
<feColorMatrix type="matrix" values="0 0 0 0 1 0 0 0 0 1 0 0 0 0 1 0 0 0 0.25 0"/>
<feBlend mode="normal" in2="shape" result="effect1_innerShadow_24_776"/>
</filter>
<filter id="filter1_di_24_776" x="12.6313" y="11.5518" width="19.5274" height="23.4273" filterUnits="userSpaceOnUse" color-interpolation-filters="sRGB">
<feFlood flood-opacity="0" result="BackgroundImageFix"/>
<feColorMatrix in="SourceAlpha" type="matrix" values="0 0 0 0 0 0 0 0 0 0 0 0 0 0 0 0 0 0 127 0" result="hardAlpha"/>
<feOffset dy="3.15871"/>
<feGaussianBlur stdDeviation="1.57936"/>
<feComposite in2="hardAlpha" operator="out"/>
<feColorMatrix type="matrix" values="0 0 0 0 0.174499 0 0 0 0 0.777357 0 0 0 0 0.898828 0 0 0 1 0"/>
<feBlend mode="normal" in2="BackgroundImageFix" result="effect1_dropShadow_24_776"/>
<feBlend mode="normal" in="SourceGraphic" in2="effect1_dropShadow_24_776" result="shape"/>
<feColorMatrix in="SourceAlpha" type="matrix" values="0 0 0 0 0 0 0 0 0 0 0 0 0 0 0 0 0 0 127 0" result="hardAlpha"/>
<feOffset dy="0.789678"/>
<feGaussianBlur stdDeviation="0.394839"/>
<feComposite in2="hardAlpha" operator="arithmetic" k2="-1" k3="1"/>
<feColorMatrix type="matrix" values="0 0 0 0 1 0 0 0 0 1 0 0 0 0 1 0 0 0 0.9 0"/>
<feBlend mode="normal" in2="shape" result="effect2_innerShadow_24_776"/>
</filter>
<filter id="filter2_bdi_24_776" x="24.1429" y="13.1429" width="42.7143" height="42.7143" filterUnits="userSpaceOnUse" color-interpolation-filters="sRGB">
<feFlood flood-opacity="0" result="BackgroundImageFix"/>
<feGaussianBlur in="BackgroundImageFix" stdDeviation="4.92857"/>
<feComposite in2="SourceAlpha" operator="in" result="effect1_backgroundBlur_24_776"/>
<feColorMatrix in="SourceAlpha" type="matrix" values="0 0 0 0 0 0 0 0 0 0 0 0 0 0 0 0 0 0 127 0" result="hardAlpha"/>
<feOffset dy="3.28571"/>
<feGaussianBlur stdDeviation="1.64286"/>
<feComposite in2="hardAlpha" operator="out"/>
<feColorMatrix type="matrix" values="0 0 0 0 0.752941 0 0 0 0 0.74902 0 0 0 0 0.976471 0 0 0 0.2 0"/>
<feBlend mode="normal" in2="effect1_backgroundBlur_24_776" result="effect2_dropShadow_24_776"/>
<feBlend mode="normal" in="SourceGraphic" in2="effect2_dropShadow_24_776" result="shape"/>
<feColorMatrix in="SourceAlpha" type="matrix" values="0 0 0 0 0 0 0 0 0 0 0 0 0 0 0 0 0 0 127 0" result="hardAlpha"/>
<feOffset dy="1.64286"/>
<feGaussianBlur stdDeviation="1.64286"/>
<feComposite in2="hardAlpha" operator="arithmetic" k2="-1" k3="1"/>
<feColorMatrix type="matrix" values="0 0 0 0 1 0 0 0 0 1 0 0 0 0 1 0 0 0 0.8 0"/>
<feBlend mode="normal" in2="shape" result="effect3_innerShadow_24_776"/>
</filter>
<filter id="filter3_bdi_24_776" x="24.9508" y="13.9508" width="41.0984" height="41.0984" filterUnits="userSpaceOnUse" color-interpolation-filters="sRGB">
<feFlood flood-opacity="0" result="BackgroundImageFix"/>
<feGaussianBlur in="BackgroundImageFix" stdDeviation="4.52459"/>
<feComposite in2="SourceAlpha" operator="in" result="effect1_backgroundBlur_24_776"/>
<feColorMatrix in="SourceAlpha" type="matrix" values="0 0 0 0 0 0 0 0 0 0 0 0 0 0 0 0 0 0 127 0" result="hardAlpha"/>
<feOffset dy="3.01639"/>
<feGaussianBlur stdDeviation="1.5082"/>
<feComposite in2="hardAlpha" operator="out"/>
<feColorMatrix type="matrix" values="0 0 0 0 0.368568 0 0 0 0 0.845508 0 0 0 0 0.942985 0 0 0 0.14 0"/>
<feBlend mode="normal" in2="effect1_backgroundBlur_24_776" result="effect2_dropShadow_24_776"/>
<feBlend mode="normal" in="SourceGraphic" in2="effect2_dropShadow_24_776" result="shape"/>
<feColorMatrix in="SourceAlpha" type="matrix" values="0 0 0 0 0 0 0 0 0 0 0 0 0 0 0 0 0 0 127 0" result="hardAlpha"/>
<feOffset dy="3.01639"/>
<feGaussianBlur stdDeviation="1.5082"/>
<feComposite in2="hardAlpha" operator="arithmetic" k2="-1" k3="1"/>
<feColorMatrix type="matrix" values="0 0 0 0 1 0 0 0 0 1 0 0 0 0 1 0 0 0 0.8 0"/>
<feBlend mode="normal" in2="shape" result="effect3_innerShadow_24_776"/>
</filter>
<filter id="filter4_bdii_24_776" x="30.4171" y="19.4157" width="30.1657" height="30.1687" filterUnits="userSpaceOnUse" color-interpolation-filters="sRGB">
<feFlood flood-opacity="0" result="BackgroundImageFix"/>
<feGaussianBlur in="BackgroundImageFix" stdDeviation="4.52459"/>
<feComposite in2="SourceAlpha" operator="in" result="effect1_backgroundBlur_24_776"/>
<feColorMatrix in="SourceAlpha" type="matrix" values="0 0 0 0 0 0 0 0 0 0 0 0 0 0 0 0 0 0 127 0" result="hardAlpha"/>
<feOffset dy="3.01639"/>
<feGaussianBlur stdDeviation="1.5082"/>
<feComposite in2="hardAlpha" operator="out"/>
<feColorMatrix type="matrix" values="0 0 0 0 0.752941 0 0 0 0 0.74902 0 0 0 0 0.976471 0 0 0 0.2 0"/>
<feBlend mode="normal" in2="effect1_backgroundBlur_24_776" result="effect2_dropShadow_24_776"/>
<feBlend mode="normal" in="SourceGraphic" in2="effect2_dropShadow_24_776" result="shape"/>
<feColorMatrix in="SourceAlpha" type="matrix" values="0 0 0 0 0 0 0 0 0 0 0 0 0 0 0 0 0 0 127 0" result="hardAlpha"/>
<feOffset dy="-1.5082"/>
<feGaussianBlur stdDeviation="1.5082"/>
<feComposite in2="hardAlpha" operator="arithmetic" k2="-1" k3="1"/>
<feColorMatrix type="matrix" values="0 0 0 0 0.0186111 0 0 0 0 0.637781 0 0 0 0 0.765885 0 0 0 1 0"/>
<feBlend mode="normal" in2="shape" result="effect3_innerShadow_24_776"/>
<feColorMatrix in="SourceAlpha" type="matrix" values="0 0 0 0 0 0 0 0 0 0 0 0 0 0 0 0 0 0 127 0" result="hardAlpha"/>
<feOffset dy="0.754098"/>
<feGaussianBlur stdDeviation="1.13115"/>
<feComposite in2="hardAlpha" operator="arithmetic" k2="-1" k3="1"/>
<feColorMatrix type="matrix" values="0 0 0 0 1 0 0 0 0 1 0 0 0 0 1 0 0 0 0.25 0"/>
<feBlend mode="normal" in2="effect3_innerShadow_24_776" result="effect4_innerShadow_24_776"/>
</filter>
<linearGradient id="paint0_linear_24_776" x1="34.3115" y1="3.03974" x2="6.07333" y2="33.514" gradientUnits="userSpaceOnUse">
<stop stop-color="#A7EBF9"/>
<stop offset="1" stop-color="#29C2E1"/>
</linearGradient>
<linearGradient id="paint1_linear_24_776" x1="55" y1="41.5" x2="36" y2="23" gradientUnits="userSpaceOnUse">
<stop stop-color="white"/>
<stop offset="0.886051" stop-color="white" stop-opacity="0"/>
</linearGradient>
</defs>
</svg>
